<svg xmlns="http://www.w3.org/2000/svg" viewBox="0 0 200 200" fill="none" aria-hidden="true" focusable="false">
  <!-- Outer ring suggestion (light) -->
  <circle cx="100" cy="100" r="78" stroke="#8AAC78" stroke-width="0.6" stroke-dasharray="4 6" opacity="0.35"/>

  <!-- Stems radiating out -->
  <path d="M100 100 Q95 75 88 55" stroke="#5C7A4E" stroke-width="1.2" stroke-linecap="round"/>
  <path d="M100 100 Q105 75 112 55" stroke="#5C7A4E" stroke-width="1.2" stroke-linecap="round"/>
  <path d="M100 100 Q120 90 140 78" stroke="#5C7A4E" stroke-width="1.2" stroke-linecap="round"/>
  <path d="M100 100 Q118 108 136 120" stroke="#5C7A4E" stroke-width="1.2" stroke-linecap="round"/>
  <path d="M100 100 Q100 122 100 145" stroke="#5C7A4E" stroke-width="1.2" stroke-linecap="round"/>
  <path d="M100 100 Q82 108 64 120" stroke="#5C7A4E" stroke-width="1.2" stroke-linecap="round"/>
  <path d="M100 100 Q80 90 60 78" stroke="#5C7A4E" stroke-width="1.2" stroke-linecap="round"/>

  <!-- Blush pink daisy (top left) -->
  <g transform="translate(85,50)">
    <circle cx="0" cy="0" r="4" fill="#F0DC8C" opacity="0.9"/>
    <ellipse cx="0" cy="-9" rx="3" ry="5.5" fill="#EAA8A8" opacity="0.85" transform="rotate(0)"/>
    <ellipse cx="0" cy="-9" rx="3" ry="5.5" fill="#EAA8A8" opacity="0.85" transform="rotate(45)"/>
    <ellipse cx="0" cy="-9" rx="3" ry="5.5" fill="#EAA8A8" opacity="0.85" transform="rotate(90)"/>
    <ellipse cx="0" cy="-9" rx="3" ry="5.5" fill="#EAA8A8" opacity="0.85" transform="rotate(135)"/>
    <ellipse cx="0" cy="-9" rx="3" ry="5.5" fill="#EAA8A8" opacity="0.85" transform="rotate(180)"/>
    <ellipse cx="0" cy="-9" rx="3" ry="5.5" fill="#EAA8A8" opacity="0.85" transform="rotate(225)"/>
    <ellipse cx="0" cy="-9" rx="3" ry="5.5" fill="#EAA8A8" opacity="0.85" transform="rotate(270)"/>
    <ellipse cx="0" cy="-9" rx="3" ry="5.5" fill="#EAA8A8" opacity="0.85" transform="rotate(315)"/>
  </g>

  <!-- Lavender cornflower (top right) -->
  <g transform="translate(115,50)">
    <circle cx="0" cy="0" r="3.5" fill="#B8ACCC" opacity="0.9"/>
    <ellipse cx="0" cy="-8" rx="2.5" ry="5" fill="#B8ACCC" opacity="0.75" transform="rotate(0)"/>
    <ellipse cx="0" cy="-8" rx="2.5" ry="5" fill="#DDD8EC" opacity="0.75" transform="rotate(60)"/>
    <ellipse cx="0" cy="-8" rx="2.5" ry="5" fill="#B8ACCC" opacity="0.75" transform="rotate(120)"/>
    <ellipse cx="0" cy="-8" rx="2.5" ry="5" fill="#DDD8EC" opacity="0.75" transform="rotate(180)"/>
    <ellipse cx="0" cy="-8" rx="2.5" ry="5" fill="#B8ACCC" opacity="0.75" transform="rotate(240)"/>
    <ellipse cx="0" cy="-8" rx="2.5" ry="5" fill="#DDD8EC" opacity="0.75" transform="rotate(300)"/>
  </g>

  <!-- Sky blue flower (right) -->
  <g transform="translate(142,80)">
    <circle cx="0" cy="0" r="3" fill="#F0DC8C" opacity="0.9"/>
    <ellipse cx="0" cy="-7" rx="2.5" ry="4.5" fill="#A8C4E0" opacity="0.8" transform="rotate(0)"/>
    <ellipse cx="0" cy="-7" rx="2.5" ry="4.5" fill="#A8C4E0" opacity="0.8" transform="rotate(72)"/>
    <ellipse cx="0" cy="-7" rx="2.5" ry="4.5" fill="#A8C4E0" opacity="0.8" transform="rotate(144)"/>
    <ellipse cx="0" cy="-7" rx="2.5" ry="4.5" fill="#A8C4E0" opacity="0.8" transform="rotate(216)"/>
    <ellipse cx="0" cy="-7" rx="2.5" ry="4.5" fill="#A8C4E0" opacity="0.8" transform="rotate(288)"/>
  </g>

  <!-- Buttercup (bottom right) -->
  <g transform="translate(138,122)">
    <circle cx="0" cy="0" r="3" fill="#F0DC8C" opacity="1"/>
    <ellipse cx="0" cy="-7" rx="2.5" ry="4.5" fill="#F0DC8C" opacity="0.85" transform="rotate(0)"/>
    <ellipse cx="0" cy="-7" rx="2.5" ry="4.5" fill="#F5E6A3" opacity="0.85" transform="rotate(72)"/>
    <ellipse cx="0" cy="-7" rx="2.5" ry="4.5" fill="#F0DC8C" opacity="0.85" transform="rotate(144)"/>
    <ellipse cx="0" cy="-7" rx="2.5" ry="4.5" fill="#F5E6A3" opacity="0.85" transform="rotate(216)"/>
    <ellipse cx="0" cy="-7" rx="2.5" ry="4.5" fill="#F0DC8C" opacity="0.85" transform="rotate(288)"/>
  </g>

  <!-- Blush poppy (bottom centre) -->
  <g transform="translate(100,147)">
    <circle cx="0" cy="0" r="3.5" fill="#2D6B45" opacity="0.7"/>
    <ellipse cx="0" cy="-9" rx="4" ry="6" fill="#EAA8A8" opacity="0.8" transform="rotate(0)"/>
    <ellipse cx="0" cy="-9" rx="4" ry="6" fill="#F5D4D4" opacity="0.8" transform="rotate(90)"/>
    <ellipse cx="0" cy="-9" rx="4" ry="6" fill="#EAA8A8" opacity="0.8" transform="rotate(180)"/>
    <ellipse cx="0" cy="-9" rx="4" ry="6" fill="#F5D4D4" opacity="0.8" transform="rotate(270)"/>
  </g>

  <!-- Lavender (bottom left) -->
  <g transform="translate(62,122)">
    <circle cx="0" cy="0" r="2.5" fill="#B8ACCC" opacity="0.9"/>
    <ellipse cx="0" cy="-7" rx="2.5" ry="4.5" fill="#B8ACCC" opacity="0.8" transform="rotate(0)"/>
    <ellipse cx="0" cy="-7" rx="2.5" ry="4.5" fill="#DDD8EC" opacity="0.8" transform="rotate(60)"/>
    <ellipse cx="0" cy="-7" rx="2.5" ry="4.5" fill="#B8ACCC" opacity="0.8" transform="rotate(120)"/>
    <ellipse cx="0" cy="-7" rx="2.5" ry="4.5" fill="#DDD8EC" opacity="0.8" transform="rotate(180)"/>
    <ellipse cx="0" cy="-7" rx="2.5" ry="4.5" fill="#B8ACCC" opacity="0.8" transform="rotate(240)"/>
    <ellipse cx="0" cy="-7" rx="2.5" ry="4.5" fill="#DDD8EC" opacity="0.8" transform="rotate(300)"/>
  </g>

  <!-- Blue left -->
  <g transform="translate(58,78)">
    <circle cx="0" cy="0" r="3" fill="#F0DC8C" opacity="0.9"/>
    <ellipse cx="0" cy="-7" rx="2.5" ry="4.5" fill="#A8C4E0" opacity="0.8" transform="rotate(0)"/>
    <ellipse cx="0" cy="-7" rx="2.5" ry="4.5" fill="#A8C4E0" opacity="0.8" transform="rotate(72)"/>
    <ellipse cx="0" cy="-7" rx="2.5" ry="4.5" fill="#A8C4E0" opacity="0.8" transform="rotate(144)"/>
    <ellipse cx="0" cy="-7" rx="2.5" ry="4.5" fill="#A8C4E0" opacity="0.8" transform="rotate(216)"/>
    <ellipse cx="0" cy="-7" rx="2.5" ry="4.5" fill="#A8C4E0" opacity="0.8" transform="rotate(288)"/>
  </g>

  <!-- Leaves scattered -->
  <ellipse cx="94" cy="68" rx="3" ry="6" fill="#8AAC78" opacity="0.7" transform="rotate(-20,94,68)"/>
  <ellipse cx="108" cy="65" rx="3" ry="5.5" fill="#5C7A4E" opacity="0.65" transform="rotate(15,108,65)"/>
  <ellipse cx="128" cy="86" rx="2.5" ry="5" fill="#8AAC78" opacity="0.7" transform="rotate(-35,128,86)"/>
  <ellipse cx="126" cy="110" rx="2.5" ry="5" fill="#5C7A4E" opacity="0.65" transform="rotate(25,126,110)"/>
  <ellipse cx="100" cy="138" rx="3" ry="5.5" fill="#8AAC78" opacity="0.7" transform="rotate(0,100,138)"/>
  <ellipse cx="74" cy="110" rx="2.5" ry="5" fill="#5C7A4E" opacity="0.65" transform="rotate(-25,74,110)"/>
  <ellipse cx="72" cy="86" rx="2.5" ry="5" fill="#8AAC78" opacity="0.7" transform="rotate(35,72,86)"/>

  <!-- Small dot accents -->
  <circle cx="88" cy="55" r="1.5" fill="#F0DC8C" opacity="0.7"/>
  <circle cx="112" cy="55" r="1.5" fill="#EAA8A8" opacity="0.7"/>
  <circle cx="140" cy="78" r="1.5" fill="#B8ACCC" opacity="0.7"/>
  <circle cx="100" cy="145" r="1.5" fill="#A8C4E0" opacity="0.7"/>
  <circle cx="60" cy="78" r="1.5" fill="#F0DC8C" opacity="0.7"/>
</svg>
